# xmcd
#
# Track frame offsets:
#	150
#	17452
#	30368
#	47862
#	61731
#	76389
#	95215
#	112370
#	128015
#	146248
#	163726
#	180036
#	192917
#	210508
#
# Disc length: 2992 seconds
#
# Revision: 3
# Processed by: cddbd v1.5.2PL0 Copyright (c) Steve Scherf et al.
# Submitted via: audiograbber 1.83.01
#
DISCID=ba0bae0e
DTITLE=Brendon Walmsley - Never Say Never
DYEAR=2001
DGENRE=Country
TTITLE0=Never Never
TTITLE1=Speak To The Sky
TTITLE2=Stay Where You Are
TTITLE3=Adam
TTITLE4=A Lesson In Life
TTITLE5=Aussie Jack
TTITLE6=Derailed Train Of Thought
TTITLE7=Loving Only Me
TTITLE8=Buckalong
TTITLE9=Small Town Superstar
TTITLE10=Whisper In The Darkness
TTITLE11=Meet You On The Mountain
TTITLE12=Slow Down
TTITLE13=Take Me Home
EXTD=
EXTT0=
EXTT1=
EXTT2=
EXTT3=
EXTT4=
EXTT5=
EXTT6=
EXTT7=
EXTT8=
EXTT9=
EXTT10=
EXTT11=
EXTT12=
EXTT13=
PLAYORDER=
